<svg xmlns="http://www.w3.org/2000/svg" viewBox="0 0 267.34 369.6">
    <defs>
        <style>.cls-1{stroke:#fff;}.cls-2{fill:#fff;}</style>
    </defs>
    <title>BBB Logo</title>
    <g id="Layer_3" data-name="Layer 3">
        <polygon class="cls-2" points="185.12 231.48 43.87 231.48 38.74 248.36 76.38 248.36 83.57 271.65 145.45 271.65 152.61 248.36 190.25 248.36 185.12 231.48"/>
        <path class="cls-2"
              d="M66.42,136.12a33.38,33.38,0,0,0,7.43,46.63l33.8,24.56A8.37,8.37,0,0,1,109.51,219l5.09,3.68L132.46,198a33.18,33.18,0,0,0,6.37-19.54,33.78,33.78,0,0,0-.42-5.32A33.2,33.2,0,0,0,125,151.4l-33.8-24.56a8.3,8.3,0,0,1-3.35-5.45,8.78,8.78,0,0,1-.11-1.34,8.24,8.24,0,0,1,1.59-4.88h0l-5.08-3.69Z"
              transform="translate(0.5 0.5)"/>
        <path class="cls-2"
              d="M86.79,37.39a48.08,48.08,0,0,0-9.23,28.34,49.2,49.2,0,0,0,.61,7.71A48.13,48.13,0,0,0,97.58,105l42.49,30.77a25.8,25.8,0,0,1,10.4,16.93,26.4,26.4,0,0,1,.33,4.12,25.76,25.76,0,0,1-5,15.19h0L149.9,175l33.48-46.27a48.41,48.41,0,0,0-10.78-67.63L121.3,23.81A14.94,14.94,0,0,1,118,2.95L113.9,0Z"
              transform="translate(0.5 0.5)"/>
        <path class="cls-2"
              d="M0,285.25H38.7c9.53,0,17,2.62,21.79,7.38A19.11,19.11,0,0,1,66.2,306.8V307c0,9.41-5,14.65-11,18,9.64,3.7,15.6,9.29,15.6,20.49v.24c0,15.24-12.38,22.86-31.2,22.86H0Zm34.77,33.7c8.1,0,13.22-2.62,13.22-8.81v-.24c0-5.48-4.29-8.57-12-8.57H17.86v17.62Zm4.88,33.58c8.1,0,13-2.86,13-9v-.24c0-5.6-4.17-9-13.58-9H17.86v18.33Z"
              transform="translate(0.5 0.5)"/>
        <path class="cls-2"
              d="M78.82,285.25h38.7c9.53,0,17,2.62,21.79,7.38A19.13,19.13,0,0,1,145,306.8V307c0,9.41-5,14.65-11,18,9.65,3.7,15.6,9.29,15.6,20.49v.24c0,15.24-12.38,22.86-31.2,22.86H78.82Zm34.77,33.7c8.1,0,13.22-2.62,13.22-8.81v-.24c0-5.48-4.29-8.57-12-8.57H96.69v17.62Zm4.88,33.58c8.1,0,13-2.86,13-9v-.24c0-5.6-4.17-9-13.57-9H96.69v18.33Z"
              transform="translate(0.5 0.5)"/>
        <path class="cls-2"
              d="M157.65,285.25h38.7c9.53,0,17,2.62,21.79,7.38a19.12,19.12,0,0,1,5.71,14.17V307c0,9.41-5,14.65-11,18,9.65,3.7,15.6,9.29,15.6,20.49v.24c0,15.24-12.39,22.86-31.2,22.86H157.65Zm34.77,33.7c8.1,0,13.22-2.62,13.22-8.81v-.24c0-5.48-4.29-8.57-12-8.57h-18.1v17.62Zm4.88,33.58c8.1,0,13-2.86,13-9v-.24c0-5.6-4.17-9-13.58-9h-21.2v18.33Z"
              transform="translate(0.5 0.5)"/>
        <path class="cls-2"
              d="M232.37,351.18v-.09a17,17,0,0,1,34-.09v.09a17,17,0,0,1-34,.09Zm32-.09V351a15,15,0,1,0-30,.09v.09a15,15,0,1,0,30-.09Zm-22-9.52h8a7.62,7.62,0,0,1,5.58,2,5.43,5.43,0,0,1,1.5,3.94v.09a5.61,5.61,0,0,1-3.9,5.58l4.41,6.47h-4.65l-3.85-5.82h-3.14v5.82h-4Zm8,8.82c2,0,3.1-1.08,3.1-2.58v-.09c0-1.73-1.22-2.63-3.19-2.63h-3.9v5.3Z"
              transform="translate(0.5 0.5)"/>
    </g>
</svg>